<svg width="16" height="16" viewBox="0 0 16 16" fill="none" xmlns="http://www.w3.org/2000/svg">
<path d="M11.9999 2.98669C10.939 1.92582 9.50016 1.32983 7.99987 1.32983C6.49958 1.32983 5.06074 1.92582 3.99987 2.98669C2.93901 4.04755 2.34302 5.4864 2.34302 6.98669C2.34302 8.48698 2.93901 9.92582 3.99987 10.9867L7.51321 14.5067C7.57518 14.5692 7.64891 14.6188 7.73015 14.6526C7.81139 14.6865 7.89853 14.7039 7.98654 14.7039C8.07455 14.7039 8.16168 14.6865 8.24292 14.6526C8.32416 14.6188 8.3979 14.5692 8.45987 14.5067L11.9999 10.9534C13.0563 9.8969 13.6498 8.46406 13.6498 6.97002C13.6498 5.47599 13.0563 4.04314 11.9999 2.98669ZM11.0465 10L7.99987 13.06L4.9532 10C4.3513 9.39757 3.94152 8.63019 3.77567 7.79488C3.60981 6.95958 3.69533 6.09385 4.02141 5.30714C4.34749 4.52043 4.89948 3.84805 5.60763 3.37501C6.31577 2.90196 7.14826 2.64948 7.99987 2.64948C8.85148 2.64948 9.68398 2.90196 10.3921 3.37501C11.1003 3.84805 11.6523 4.52043 11.9783 5.30714C12.3044 6.09385 12.3899 6.95958 12.2241 7.79488C12.0582 8.63019 11.6484 9.39757 11.0465 10ZM5.99987 4.94002C5.46168 5.47987 5.15947 6.21107 5.15947 6.97335C5.15947 7.73564 5.46168 8.46684 5.99987 9.00669C6.39971 9.40721 6.90893 9.68074 7.46364 9.79296C8.01835 9.90517 8.59384 9.85108 9.11792 9.63746C9.642 9.42384 10.0913 9.06021 10.4095 8.59219C10.7277 8.12417 10.9006 7.5726 10.9065 7.00669C10.9095 6.62882 10.8368 6.25419 10.6925 5.90495C10.5482 5.5557 10.3354 5.23893 10.0665 4.97335C9.80232 4.70307 9.48726 4.48771 9.13949 4.33967C8.79171 4.19162 8.4181 4.11381 8.04014 4.11071C7.66218 4.10761 7.28734 4.17929 6.93719 4.32161C6.58703 4.46394 6.26849 4.67411 5.99987 4.94002ZM9.12654 8.06002C8.8739 8.31652 8.54001 8.47729 8.18196 8.51486C7.8239 8.55242 7.46391 8.46445 7.16354 8.26597C6.86317 8.0675 6.64107 7.77085 6.53521 7.42674C6.42935 7.08264 6.4463 6.71245 6.58318 6.37946C6.72005 6.04647 6.96834 5.77137 7.28559 5.60118C7.60285 5.43099 7.96937 5.37629 8.3225 5.44643C8.67562 5.51657 8.99341 5.70719 9.22154 5.98571C9.44968 6.26422 9.57398 6.61333 9.5732 6.97335C9.56351 7.38487 9.39087 7.77571 9.0932 8.06002H9.12654Z" fill="white"/>
</svg>
